# xmcd CD database file
#
# Track frame offsets:
#	150
#	24245
#	45935
#	57177
#	78543
#
# Disc length: 1306 seconds
#
# Revision: 0
# Processed by: cddbd v1.5.1PL0 Copyright (c) Steve Scherf et al.
# Submitted via: CDex 1.60beta1
#
DISCID=2e051805
DTITLE=LISA - Only if〜Diamonds in the Snow e．p．〜
DYEAR=1900
DGENRE=JPop
TTITLE0=Only if
TTITLE1=さよなら
TTITLE2=THE CHRISTMAS SONG
TTITLE3=Kissing A Fool
TTITLE4=Only if−SH Club Remix−Radio Edit
EXTD=
EXTT0=
EXTT1=
EXTT2=
EXTT3=
EXTT4=
PLAYORDER=
